<?xml version="1.0" standalone="no"?>
<!DOCTYPE svg PUBLIC "-//W3C//DTD SVG 20010904//EN"
 "http://www.w3.org/TR/2001/REC-SVG-20010904/DTD/svg10.dtd">
<svg version="1.0" xmlns="http://www.w3.org/2000/svg"
 width="80.000000pt" height="75.000000pt" viewBox="0 0 80.000000 75.000000"
 preserveAspectRatio="xMidYMid meet">
<metadata>
Created by potrace 1.10, written by Peter Selinger 2001-2011
</metadata>
<g transform="translate(0.000000,75.000000) scale(0.100000,-0.100000)"
fill="#000000" stroke="none">
<path d="M355 631 c-51 -79 -65 -111 -65 -149 0 -41 36 -91 76 -108 96 -40
191 62 150 161 -19 45 -98 165 -108 165 -5 0 -29 -31 -53 -69z"/>
<path d="M603 317 c-49 -72 -73 -125 -73 -162 0 -95 117 -150 189 -89 37 31
53 81 40 128 -8 28 -103 187 -111 186 -2 0 -22 -28 -45 -63z"/>
<path d="M136 335 c-43 -56 -86 -144 -86 -177 0 -98 115 -154 189 -92 44 37
58 89 36 139 -19 48 -94 165 -105 165 -4 0 -20 -16 -34 -35z"/>
</g>
</svg>
